<?xml version="1.0" encoding="UTF-8"?>
<svg width="72px" height="72px" viewBox="0 0 72 72" version="1.1" xmlns="http://www.w3.org/2000/svg" xmlns:xlink="http://www.w3.org/1999/xlink">
    <!-- Generator: Sketch 47.1 (45422) - http://www.bohemiancoding.com/sketch -->
    <title>Group 4</title>
    <desc>Created with Sketch.</desc>
    <defs>
        <circle id="path-1" cx="32" cy="32" r="32"></circle>
        <filter x="-10.9%" y="-7.8%" width="121.9%" height="121.9%" filterUnits="objectBoundingBox" id="filter-2">
            <feOffset dx="0" dy="2" in="SourceAlpha" result="shadowOffsetOuter1"></feOffset>
            <feGaussianBlur stdDeviation="2" in="shadowOffsetOuter1" result="shadowBlurOuter1"></feGaussianBlur>
            <feComposite in="shadowBlurOuter1" in2="SourceAlpha" operator="out" result="shadowBlurOuter1"></feComposite>
            <feColorMatrix values="0 0 0 0 0   0 0 0 0 0   0 0 0 0 0  0 0 0 0.16 0" type="matrix" in="shadowBlurOuter1"></feColorMatrix>
        </filter>
    </defs>
    <g id="Onboarding-2-Copy" stroke="none" stroke-width="1" fill="none" fill-rule="evenodd">
        <g id="Onboard-4.5" transform="translate(-236.000000, -300.000000)">
            <g id="Group-4" transform="translate(240.000000, 302.000000)">
                <g id="Oval-6">
                    <use fill="black" fill-opacity="1" filter="url(#filter-2)" xlink:href="#path-1"></use>
                    <use fill-opacity="0.436565897" fill="#887BFF" fill-rule="evenodd" xlink:href="#path-1"></use>
                </g>
                <path d="M34.4449863,16 C26.7633908,16 20.5363106,22.2239699 20.5363106,29.9020685 C20.5363106,30.1759708 20.5468506,30.4471544 20.5624905,30.7166389 C20.5624905,30.7166389 23.2906418,30.7682929 24.8274369,31.7653515 C24.5853577,33.2086056 24.3038386,34.6569572 23.9546597,36.0855988 C21.2506483,36.240221 18.5469769,36.3945034 15.8429655,36.5487858 C14.8389487,36.6062169 14.8154888,38.1422445 15.7865257,38.1446233 C15.7865257,40.2267561 15.7865257,42.308889 15.7865257,44.3913617 C15.7158059,44.4073337 15.6447462,44.4243251 15.5736864,44.4399573 C14.5686496,44.661186 14.9950082,46.1992525 15.998005,45.9783636 C17.5208602,45.6429523 19.0406554,45.2028736 20.4842908,44.6132701 C21.3346281,44.2659648 22.2771051,43.8629275 22.8955631,43.1554033 C23.4548613,42.5155051 23.7996202,41.7267618 24.1195592,40.9495726 C24.5635978,39.8706153 24.9273966,38.7491792 25.2367956,37.6076933 C25.758354,37.5777883 26.2795723,37.5478834 26.8011307,37.5183182 C26.8188106,37.9301911 26.8194906,38.2309399 26.8194906,38.3495402 C26.8194906,41.4470824 29.3320826,43.9587593 32.4315127,43.9587593 C33.928868,43.9587593 35.9658015,44.4871935 41.3238444,39.5875376 C42.388041,38.5238725 47.1653658,38.6679601 47.1653658,38.6679601 C47.5556846,38.713837 49,33.8216573 49,29.9020685 C49,21.5837319 44.4018546,16 34.4449863,16 Z M22.8248433,39.8879465 C22.5671241,40.6056656 22.2641851,41.3193067 21.8276265,41.9486702 C21.7473867,42.0642121 21.4679076,42.3241813 21.2367084,42.4737061 C20.8321097,42.7353745 20.3863711,42.9416508 19.9409725,43.1231195 C19.1113751,43.4619291 18.2521979,43.7456864 17.3824806,43.9890041 C17.3824806,42.0115386 17.3824806,40.0337332 17.3824806,38.0559279 C19.4302941,37.9390267 21.4781076,37.8221255 23.5255811,37.7052242 C23.3147818,38.4423136 23.0825625,39.1709071 22.8248433,39.8879465 Z M25.6383344,35.989767 C25.8205738,35.1853915 25.9810533,34.3759186 26.1279328,33.567805 C26.4016319,34.3082926 26.5672114,35.154467 26.6668311,35.9309765 C26.3241122,35.9506866 25.9810533,35.9700569 25.6383344,35.989767 Z M34.7683253,35.9224808 C33.5089693,35.9224808 32.4879526,34.901974 32.4879526,33.6435869 C32.4879526,32.3848599 33.5089693,31.3643531 34.7683253,31.3643531 C36.0273413,31.3643531 37.048358,32.3845201 37.048358,33.6435869 C37.048358,34.901974 36.0273413,35.9224808 34.7683253,35.9224808 Z" id="Shape" fill="#FFA1AE" fill-rule="nonzero"></path>
            </g>
        </g>
    </g>
</svg>