<?xml version="1.0" encoding="UTF-8"?>
<svg width="73px" height="72px" viewBox="0 0 73 72" version="1.1" xmlns="http://www.w3.org/2000/svg" xmlns:xlink="http://www.w3.org/1999/xlink">
    <!-- Generator: Sketch 47.1 (45422) - http://www.bohemiancoding.com/sketch -->
    <title>Group 4</title>
    <desc>Created with Sketch.</desc>
    <defs>
        <circle id="path-1" cx="32.5" cy="32" r="32"></circle>
        <filter x="-10.9%" y="-7.8%" width="121.9%" height="121.9%" filterUnits="objectBoundingBox" id="filter-2">
            <feOffset dx="0" dy="2" in="SourceAlpha" result="shadowOffsetOuter1"></feOffset>
            <feGaussianBlur stdDeviation="2" in="shadowOffsetOuter1" result="shadowBlurOuter1"></feGaussianBlur>
            <feColorMatrix values="0 0 0 0 0   0 0 0 0 0   0 0 0 0 0  0 0 0 0.16 0" type="matrix" in="shadowBlurOuter1"></feColorMatrix>
        </filter>
    </defs>
    <g id="Onboarding-2" stroke="none" stroke-width="1" fill="none" fill-rule="evenodd">
        <g id="Completed-Cards" transform="translate(-238.000000, -299.000000)">
            <g id="Group-3" transform="translate(10.000000, 261.000000)">
                <g id="Group-4" transform="translate(232.000000, 40.000000)">
                    <g id="Oval-6">
                        <use fill="black" fill-opacity="1" filter="url(#filter-2)" xlink:href="#path-1"></use>
                        <use fill="#F15858" fill-rule="evenodd" xlink:href="#path-1"></use>
                    </g>
                    <path d="M34.977383,16.7936514 C27.1940045,16.7936514 20.8844141,23.1032418 20.8844141,30.8869647 C20.8844141,31.164635 20.8950937,31.4395491 20.9109409,31.7127408 C20.9109409,31.7127408 23.6752408,31.7651054 25.2323988,32.7758801 C24.987112,34.2389885 24.7018627,35.7072645 24.3480571,37.1555592 C21.608217,37.3123085 18.8687213,37.4687133 16.1288811,37.6251181 C15.1115609,37.6833393 15.0877901,39.2404973 16.0716935,39.2429088 C16.0716935,41.3536847 16.0716935,43.4644606 16.0716935,45.575581 C16.0000366,45.5917727 15.9280353,45.6089979 15.856034,45.6248451 C14.8376802,45.8491172 15.2696882,47.4083422 16.2859749,47.1844146 C17.8290083,46.8443892 19.3689411,46.3982565 20.831705,45.8005421 C21.6933094,45.448459 22.6482745,45.0398773 23.2749272,44.32262 C23.8416363,43.673919 24.1909633,42.8743253 24.5151415,42.0864447 C24.9650637,40.9926445 25.333683,39.8557814 25.6471816,38.6985925 C26.1756507,38.6682762 26.7037753,38.6379598 27.2322444,38.607988 C27.2501587,39.0255268 27.2508477,39.3304128 27.2508477,39.4506447 C27.2508477,42.5907985 29.7967321,45.1370274 32.9372304,45.1370274 C34.4544259,45.1370274 36.5183493,45.6727311 41.9473875,40.7056727 C43.025685,39.6273753 47.8663104,39.7734449 47.8663104,39.7734449 C48.261801,39.819953 49.7252539,34.8604737 49.7252539,30.8869647 C49.7252539,22.4541963 45.066182,16.7936514 34.977383,16.7936514 Z M23.2032704,41.0102142 C22.9421364,41.7378066 22.6351833,42.461265 22.1928402,43.0992864 C22.1115373,43.2164177 21.828355,43.4799633 21.5940923,43.631545 C21.1841326,43.8968131 20.7324878,44.105927 20.2811876,44.2898921 C19.4405979,44.6333626 18.5700363,44.9210234 17.6887952,45.1676883 C17.6887952,43.1630196 17.6887952,41.1580064 17.6887952,39.1529933 C19.7637426,39.0344839 21.8386901,38.9159745 23.9132931,38.7974652 C23.6997006,39.5446943 23.4644044,40.2833108 23.2032704,41.0102142 Z M26.0540408,37.0584091 C26.238695,36.2429681 26.4013008,35.4223597 26.5501266,34.6031292 C26.8274523,35.3538034 26.9952257,36.2116183 27.0961654,36.9988099 C26.7489054,37.0187911 26.4013008,37.0384278 26.0540408,37.0584091 Z M35.3050062,36.9901973 C34.0289635,36.9901973 32.994418,35.9556518 32.994418,34.6799536 C32.994418,33.4039108 34.0289635,32.3693654 35.3050062,32.3693654 C36.5807045,32.3693654 37.6152499,33.4035663 37.6152499,34.6799536 C37.6152499,35.9556518 36.5807045,36.9901973 35.3050062,36.9901973 Z" id="Shape" fill="#FFFFFF" fill-rule="nonzero"></path>
                </g>
            </g>
        </g>
    </g>
</svg>